<svg xmlns="http://www.w3.org/2000/svg" viewBox="0 0 200 200" width="200" height="200">
  <path d="M100 8 L180 52 L180 148 L100 192 L20 148 L20 52 Z" fill="#111111"/>
  <path d="M100 28 L160 60 L160 132 L100 164 L40 132 L40 60 Z" fill="#222222"/>
  <path d="M100 28 L160 60 L100 92 L40 60 Z" fill="#111111"/>
  <rect x="74" y="56" width="14" height="60" rx="1.5" fill="white"/>
  <path d="M74 56 L112 56 Q130 56 130 74 Q130 92 112 92 L88 92 L88 80 L110 80 Q118 80 118 74 Q118 68 110 68 L88 68 Z" fill="white"/>
</svg>
